<svg xmlns="http://www.w3.org/2000/svg" version="1.1" width="600px" height="600px" viewBox="0 0 200 200" style="overflow:hidden!important;"><g id="svga-group-wrapper"><g id="svga-group-backs-single"><path id="SvgjsPath14605" d="M0 0h200v200H0V0z" fill="#ffffff" stroke-width="none" opacity="1"></path></g><g id="svga-group-humanwrap-move" transform="matrix(1,0,0,1,0,-6)"><g id="svga-group-humanwrap" transform="matrix(0.8499994000000002,0,0,0.8499994000000002,15.24017145314825,17.725367350847037)"><g id="svga-group-hair-back-move" transform="matrix(1,0,0,1,0,0)"><g id="svga-group-hair-back" transform="matrix(0.9599996000000002,0,0,0.9997996000000002,4.064070105016313,0.020093864991736154)"><path id="SvgjsPath14829" d="M72.3 30.8s1.2-8.7 7.5-10.9 13.4 3.1 20 4.1 15.6-5.6 24.3-2.8 9.4 14.7 12.8 17.2c3.4 2.5 10 3.4 16.9 6.2 6.9 2.8 4.1 12.8 5 22.2.9 9.4 3.7 13.1 11.2 16.8 7.5 3.7 1.6 14.4-1.2 19.7-2.8 5.3.3 5.6 5.6 10.6s.9 16.2-5.9 18.7c-6.9 2.5-9.4 7.8-7.2 13.7 2.2 5.9 1.9 18.1-5.9 20.3-7.8 2.2-13.9-3.6-18.6 2.7-4.7 6.2-8.9 9.1-13.9 7.6-5-1.6-11.2-10.2-14-7.1-2.8 3.1-24.7 15.3-30.3 10.6s-7.8-14.7-14-11.9-9.7 4.4-13.7-1.6-4.6-8.9-10.6-8.2-10.6-6.4-10-13.6c.6-7.2 4.6-7.8-.7-15.3-5.3-7.5-1.6-16.2 3.4-21.2s3.1-14.7-1.6-19-6.9-11.9-2.2-17.2c4.7-5.3 9.7-5.9 9.7-10.6s-3.1-8.7 1.9-15.9 17.2-5.3 20.9-6.2c3.7-1.1 10.6-8.9 10.6-8.9z" fill="#ffffff" stroke-width="none" opacity="1"></path><path id="SvgjsPath14830" d="M175 113c-1.2-1.2-2.3-2.1-3.3-2.8-3.2-2.6-3.9-3.2-2.1-6.6l.3-.5c2.2-4.2 6-11.2 4.4-16.2-.6-1.9-1.9-3.3-3.8-4.3-7.4-3.7-9.8-7.3-10.7-16.1-.3-2.6-.2-5.2-.2-7.7.1-6.7.1-13-5.4-15.2-2.9-1.2-5.8-2-8.3-2.8-3.5-1-6.5-2-8.4-3.3-1-.7-1.9-2.8-2.8-5-1.9-4.6-4.3-10.3-10.3-12.2-5.3-1.7-10.8-.1-15.5 1.2-3.3 1-6.4 1.9-9 1.5-2.3-.3-4.7-1.2-7.2-2.2-4.4-1.6-9-3.4-13.3-1.9-6.1 2.1-7.8 9.8-8.1 11.4-2 2.3-7.2 7.5-9.9 8.2-.8.2-2.3.3-4 .3-5.4.2-13.5.5-17.5 6.3-3.9 5.6-3.2 9.5-2.5 12.9.2 1.2.5 2.4.5 3.6 0 2.2-1.3 3.3-4 5.2-1.6 1.2-3.6 2.6-5.5 4.7-5.2 5.9-2.7 13.9 2.2 18.6 2.5 2.3 4.1 6.3 4.2 10.2 0 3-.9 5.7-2.7 7.4-5.7 5.7-9 14.8-3.5 22.5 3.3 4.6 2.8 6.2 1.8 9-.5 1.4-1.1 3.2-1.3 5.6-.4 4.6 1.2 9.2 4.1 12.1 2 2 4.5 2.9 7 2.6 4.3-.4 5.3 1 7.8 5 .5.8 1.1 1.8 1.8 2.8 4.5 6.6 8.7 4.8 15 1.9 3.1-1.4 4.9 1 7.8 5.3 1.5 2.3 3.1 4.7 5.2 6.4 1.1.9 2.6 1.3 4.3 1.3 8.7 0 24.2-9 27.1-11.7 2.5 1.4 4.9 2.6 6.3 2.9l1.2.9c-1.1.1-2.2 0-3.3-.3-.8-.2-1.1 1-.3 1.2 1.5.4 3.4.5 5.1.1 1.4 1.1 2.8 2 4.2 2.4 6.5 2 11.5-3.2 15-7.9 2.4-3.2 5.1-2.8 8.9-2.2 2.7.4 5.8.9 9.2-.1 2.6-.7 4.6-2.4 6-5.1 2.5-4.9 2.2-12.2.6-16.5-.9-2.6-.9-5 0-7.1 1.1-2.3 3.4-4.2 6.6-5.3 4.1-1.5 7.6-6 8.7-11 .8-3.8-.1-7.3-2.4-9.5zm-57.3 28.9c.6-4.4-.2-8.2-1.1-11 3.5 3.5 7.2 6.9 3.9 12.1-1.5 2.4-4.3 4.6-6.1 7.1 1.4-2 2.8-4.5 3.3-8.2zm-5.1 15.4c.8 2.7 3.1 4.5 5.2 6.2 1.4 1.2 4.2 3.1 4.4 5 .3 2.6-1 4.3-2.8 5.1l-1.2-.9c1.5-.8 2.2-2.2.4-5.2-2.5-4.1-4.7-4.1-6.8-9.5-1-2.8.2-4.6 1.9-6.9-1.1 1.9-1.7 3.8-1.1 6.2zm23.3 11.3c-.6.8-1.1 1.4-1.7 2.1.8-3.3-.3-7-.3-10.7 0-8.1 8-8.4 10.1-15 2.3-7.1-7.3-11.8-.9-18.6.4 3.2.6 6.3 2.5 8.5 4 4.7 2.6 15.1-1.2 17.7s-6.1 5-5 7.6c.8 1.7.1 4.2-.4 5.6-1.1.6-2.1 1.5-3.1 2.8zm21.9-64.2c1.7 4.7 7.2 7.7 7.9 12.8.9 6.7-7.4 8.5-10.9 12.6-3.3 3.7-2.8 8.4-1.4 12.8 1.3 4.2 3.5 8.3 2.6 12.8-1 5.1-5.4 9.6-10.5 10.1-1-.1-1.9-.2-2.8-.2 2.8-1.6 6.3-4 7.5-7 2.1-5.4 3.8-11.4 1.4-18s1.2-11.8 4-18.4c2.8-6.6.9-10.4 1.7-16.1.1-.8.2-1.5.3-2.2 0 .2.1.5.2.8zm17.6 17.7c-.9 4.3-3.9 8.2-7.4 9.5-3.7 1.4-6.4 3.6-7.7 6.4-1.2 2.6-1.2 5.6-.1 8.6 1.4 3.9 1.6 10.6-.5 14.9-1.1 2.2-2.7 3.5-4.7 4.1-2.2.6-4.3.6-6.3.3 3.3-1.3 6-3.9 7.5-7.3 3.6-8-3-14.4-2.7-22.3.3-8.7 10.6-8.6 13.2-15.7 1.7-4.7-1.9-8.5-4.6-11.9-3.6-4.5-3.9-8.2-2-13.6.9-2.7 1.6-5.2.8-7.9 0-1.5-.3-3-1.1-4.6-.9-1.9-4.3-6.2-7.5-10.1-.6-2.2-.7-4.5-.6-7.2.3-6.6-.1-12.4-5.7-16.8-6-4.8-14-4.9-21.3-5-.8 0-.8 1.2 0 1.2 7.8.1 17 .3 22.6 6.6 4.9 5.5 2.6 12.3 3.1 18.8-2.5-3-4.5-5.3-4.5-5.3l-8.8-3.3-3.6 2.1c4.3 4.7 1.2 26.7-.9 34.8-2.1 8 .5 12.3 6.4 17.5 2.7 2.4 3.5 5.6 3.9 8.8-1.1 1-2.1 2-2.8 3.3-2.5 5 1.9 8.4 2.8 13.1 1.3 6.8-6.9 8.5-9.4 13.6-2.9 6.1 2.8 13.8-2.6 19l-.1.1c-2.6 2-5 2.6-7.6 1.9 1.4-.2 2.7-.8 3.9-1.9 2-1.8 3.3-4.6 3.1-7.4-.1-2.3-1.3-4.1-2.5-5.9-.9-2-1.8-3.4-2.3-4.5 0-.1-.1-.2-.1-.4-1.4-7.4 11.1-7.6 11.7-15 .3-3.3-1.9-6.1-3.8-8.6-4.6-6.2-6.1-13.4-.8-19.9.5-.6-.4-1.5-.9-.9-1.6 1.9-2.7 4.1-3.4 6.4 0-.7-.1-1.3-.1-2.1-.7-16.2-8.1-13.1-11.5-1.6-2.8 9.7 7 14.6 9.7 20.9s-2.9 9.5-5 13.7-3.8 6.8 0 10.4c3.7 3.5 8.6 8 3 14.7-1.2.4-2.4.6-3.7.4 2.1-1.2 3.4-3.2 2.6-6.2-.8-2.8-3.5-4.5-5.6-6.3-5.1-4.3-4.8-8.4-.6-13.2 3.7-4.2 8.3-8.7 4.4-14.4-3.2-4.8-8.2-7-9.7-13.1-1.9-7.7 1.7-15.2 8.4-19.1.7-.4.1-1.5-.6-1.1-6.2 3.7-10.2 10.3-9.5 17.7.3 2.6 1.1 5.1 2.3 7.3l-13-2.6-14.4 6.3c-1.3 7.7-4.7 6.8-2.5 11.7s17.3 23.4 17.3 23.4 3.6 2.4 7.4 4.6c-3.6 3.2-17 10.3-24.4 10.8-4.8-2.8-1.2-11.6-4.3-16-2.1-3.1-5.7-4.8-9.2-5.8-6.3-1.8-13.5-.7-19.1-4.6-4.8-3.4-5.4-7.9-2.8-12.9 1-1.9 2.1-3.2 2.3-5.4.1-.7.1-1.4 0-2.2.2-1.1 0-1.9-.5-2.7-.7-2.2-1.8-4.3-2.8-6.4 0-4.2.9-11 2.2-17.1 1.6-.9 3.3-1.6 4.9-2.6 7.9-4.8 7.5-14.2 6.5-22.3-.1-.8-1.3-.8-1.2 0 .8 6.2 1.6 14-3 18.9-1.9 2-4.5 3.1-6.9 4.3 1.1-5.1 2.4-9.5 3.3-10.8l.8-8.6S43.2 91 42.3 98.2c-.8 7.1-9.8 12.2-11.7 17.6-1.9 5.4 3.3 8.8 5.5 13.2 2.1 4.4-1 7.5-2.3 14.7-1.3 7.1 6.1 7.5 10.3 9.2 4.2 1.7 7.8 12.6 12.8 11.9 5-.6 11.5-1.9 15.9 2.1 2.8 2.5 4.8 5.8 5.9 7.9.1 1.8.6 3.5 1.8 4.8-.8-.1-1.4-.4-1.9-.8-1.9-1.6-3.4-3.8-4.8-6-2.2-3.2-4.4-6.6-7.7-6.6-.8 0-1.6.2-2.5.6-6.3 2.8-8.9 4-12.5-1.2-.7-1-1.3-1.9-1.8-2.7-2.6-4.1-4.2-6.5-9.7-5.9-2.4.2-4.2-1-5.4-2.1-2.5-2.4-3.9-6.5-3.5-10.4.2-2.2.7-3.8 1.2-5.1 1-3 1.8-5.3-2-10.8-4.8-6.7-1.8-14.8 3.3-19.9 2.2-2.2 3.3-5.3 3.2-8.9-.1-4.4-2-8.9-4.8-11.6-4.3-4-6.5-10.9-2.1-15.8 1.8-2 3.5-3.3 5.1-4.4 2.6-1.9 4.8-3.5 4.8-6.8a16 16 0 0 0-.5-3.9c-.6-3.4-1.2-6.5 2.2-11.4 3.5-5 11-5.3 16-5.5 1.9-.1 3.3-.1 4.4-.4 3.9-1 10.4-8.2 11.1-9l.2-.2v-.3c0-.1 1.2-8.2 6.8-10.1 3.6-1.3 7.6.2 11.9 1.8 2.5.9 5.1 1.9 7.6 2.3 3 .4 6.3-.5 9.8-1.6 4.7-1.4 9.6-2.8 14.3-1.3 5.1 1.6 7.3 6.9 9.1 11.1 1.1 2.6 2 4.8 3.5 5.9 2.1 1.6 5.3 2.5 9 3.6 2.5.8 5.3 1.6 8.1 2.8 4.3 1.8 4.2 6.9 4.2 13.4 0 2.6-.1 5.3.2 8 .9 9.5 3.7 13.6 11.8 17.7 1.4.7 2.4 1.7 2.8 3.1 1.4 4.2-2.1 10.8-4.2 14.7l-.3.5c-2.6 4.8-.6 6.4 2.6 9.1.9.8 2 1.6 3.2 2.8 2.9 2.5 2.6 5.9 2.2 7.8zM73.1 94.6l-2.4.7c-.9-5.2-3.1-10.5-5.3-15.1-.3-.7-1.4-.1-1.1.6 2.2 4.7 4.4 9.6 5.2 14.8l-5.9 1.7s-8.3 10.4-8.3 16.9c0 4.5 1.3 5.8 5 7.8.2.5.3.9.6 1.4 2.2 4 8.9 5.2 10.4 9.4 1 2.8-.3 6.1-2.4 7.7-.5.4-1 .7-1.5 1.1-.9.7-1.8 1.5-2.3 2.6-1 2.4 0 4.8 1.8 6.4 1.7 1.5 3.8 2.1 5.8 2.9 3.4 1.4 6.2 3.3 8.2 6.5 3.3 5.1 3.8 11.4 1.3 16.9-.3.7.7 1.4 1.1.6 3.3-7.1 1.8-15.7-3.8-21.2-1.4-1.4-3-2.5-4.8-3.3-1.1-.5-2.2-.8-3.3-1.2-1-.4-1.9-.9-2.9-1.4-2.8-3.9-2.7-6.8.4-8.4 2.4-1.8 4.9-3.5 4.5-6.9-.4-3.6-3.9-5.9-6.6-7.8-1.8-1.3-3.5-2.6-4.5-4.2 1.3.7 2.8 1.4 4.6 2.4 9 5 9.9 7.7 8.6 12.2s-4.1 4.7-.4 7.7c2.5 2 7.2 4.4 9.7 8.8.2.7.3 1.4.6 2.1.2.9.6 1.9 1 2.7.1.7.1 1.4.1 2.1 0 0 .3-.3.7-.9 1.2 1.8 3 3 5.4 2.9.8 0 .8-1.3 0-1.2-1.6-.9-3.2-1.9-4.8-2.9v-.1c.6-1.6.8-4.1-1.6-6.9-.2-.3-.4-.5-.7-.8-.4-1.3-.9-2.5-1.8-3.7-1-1.3-2.8-2-3.7-3.3-1.5-2.1-1.7-3.6-1.2-5.1 1.4-2.1 4.6-2.7 4.8-7.8.2-6.1-1.8-19.8-1.8-19.8l-8.7-16.9z" fill="#000000" stroke-width="none" opacity="1"></path></g></g><g id="svga-group-humanbody-back"><path id="SvgjsPath14675" d="M86.5 107c0 18.8 2.7 50.3-8.1 58s-31.8 13.9-36.7 24.4-3.6 29.4-3.6 29.4h124.1s.6-23.1-4.2-30.4c-6.6-10.1-28.5-17.7-36.5-22.9-8.1-5.2-10.9-32.2-10.9-58.8l-24.1.3z" fill="#ffffff" stroke-width="none" opacity="1"></path></g><g id="svga-group-chinshadow-single"></g><g id="svga-group-humanbody-front"><path id="SvgjsPath14676" d="M163.4 220.1H37.2l-.3-.9c-.1-.5-1.3-19.7 3.6-30.3 3.4-7.3 13.6-12.4 23.5-17.4 5.1-2.5 9.9-5 13.6-7.5 8.6-6 8.1-29.8 7.7-47.1-.1-3.5-.1-6.8-.1-9.8v-1.3l26.7-.4v1.3c0 32 3.8 53.5 10.3 57.7 2.4 1.6 6 3.3 10.2 5.4 9.7 4.7 21.9 10.6 26.7 18 5 7.6 4.4 30.9 4.4 31.2l-.1 1.1zm-124.1-2.6h121.6c-.1-2.4-.6-23.2-4-28.4-4.4-6.7-16.2-12.5-25.6-17-4.3-2.1-8-3.9-10.5-5.5-9.8-6.3-11.4-38.8-11.5-58.6l-21.5.4c0 2.6.1 5.5.1 8.5.4 18.9.9 42.4-8.8 49.3-3.8 2.7-8.7 5.1-13.9 7.7-9.5 4.8-19.4 9.7-22.3 16.1-3.3 6.9-3.7 25.9-3.6 27.5z" fill="#000000" stroke-width="none" opacity="1"></path><path id="SvgjsPath14677" d="M76.8 173.7c4.8 2.3 10.4 3.9 15.7 2.9.4-.1.4-.7 0-.8-5.1-.9-10.2-1.4-15.2-3.2-.6-.2-1.1.8-.5 1.1zm31.5 2.4c2.4.3 4.9-.4 7.1-1.2 2.1-.8 4.3-1.7 5.8-3.4.5-.5-.1-1.2-.7-.9-2.1.9-3.9 2.3-6.1 3-2 .7-4.1 1-6.2 1.5-.6.1-.4.9.1 1z" fill="#000000" stroke-width="none" opacity="1"></path></g><g id="svga-group-clothes-single"><path id="SvgjsPath14806" d="M85.2 148.9s-6.4 0-8.1 1.6-6.3 1.9-8.1 7.7c0 0-4.8 5.8-4.5 9l-4.7 5.1s-8.5 3.1-11 4.5c-2.4 1.4-5.6 5.1-5.6 5.1s-4.3 2.7-5.3 5.3c-.9 2.3-2.9 8.9-2 15.4.1.7.2 16.4.4 17.1H164c0-.7.5-.7-.1-16.7-.1-3.3-.5-10.5-1.1-12.6-.8-2.7-5.8-9.3-8.1-9.8 0 0-7.1-6.3-9-7.1s-6.9-2.4-6.9-2.4-5-3.4-6.8-6.9c-.3-.6-4.8-7.9-6.1-8.7 0 0-.5-2.1-3.7-4.5s-8.4-2.9-8.4-2.9.6 2.4 1.3 6.4c.6 4 1 6.6-.2 9.3-1.1 2.7-4.8 5.5-7.6 8.5s-4.5 4.5-6 8.1c0 0-6.3-6.1-10.9-8.4s-6.4-4.2-7.2-7.2c-.6-2.9 2-15.9 2-15.9z" fill="#ffffff" stroke-width="none" opacity="1"></path><path id="SvgjsPath14807" d="M165 203.1c-.1-3.4-.5-10.6-1.1-12.8-.8-2.7-5.6-9.4-8.5-10.4-1.3-1.1-7.2-6.3-9.1-7.1-1.8-.7-6-2.1-6.9-2.4-.7-.5-4.9-3.5-6.3-6.5-.1-.3-4.3-7.2-6.2-8.8-.3-.8-1.2-2.7-4-4.7-3.4-2.6-8.7-3.1-8.9-3.1-.3 0-.6.1-.9.4-.2.2-.3.6-.2.9 0 0 .6 2.4 1.3 6.3.6 3.8.9 6.3-.1 8.8-.7 1.6-2.5 3.4-4.4 5.2-1 1-2.1 2-3 3-.5.6-1 1.1-1.4 1.6-1.7 1.8-3 3.2-4.1 5.5-2-1.9-6.5-5.8-10.2-7.6-4.8-2.3-6.1-4.1-6.7-6.6-.5-1.8.5-8.6 1.4-13.7.4-.2.6-.7.4-1.2 0-.1-.1-.2-.1-.2 0-.2.1-.4.1-.5.1-.3 0-.6-.2-.8s-.5-.4-.8-.4c-1.1 0-6.9.1-8.7 1.9-.3.4-1 .7-1.8 1.1-2 1-5.1 2.5-6.5 6.9-.9 1.1-4.6 5.8-4.6 9.1l-4.2 4.7c-1.4.5-8.6 3.1-10.9 4.5-2.3 1.4-5.2 4.6-5.8 5.2-.8.5-4.6 3.1-5.6 5.7-.8 2.1-3 8.9-2.1 15.9.1.7.2 16.5.4 17.2.1.4.5.8 1 .8h127.6c.3 0 .5-.1.7-.3s.3-.5.3-.7c.2-.3.1-15.9.1-16.9zm-2 14c-3.6-2.6-7.8-4.2-11.5-6.8v-4.4c3.2 2.9 6.8 6.3 10.9 7.4.1 0 .2-.2.1-.2-4-2.2-7.4-4.9-11-7.7v-3.1c.4.4 5.7 5 11.4 7.1.1 2.8.1 5.8.1 7.7zm0-8.2c-6.1-2.6-9.4-5.8-9.6-5.9-.7-.5-1.3-1.1-1.8-1.7 0-1.2.1-2.3.1-3.3 1.7 2.2 8.6 7.4 11.3 8.9v2zm-4.8-19.1c-1.4-1.5-3-2.9-4.4-4.4.6-1.7 1.1-2.8 1.4-3.4 2 1.3 6 6.4 6.7 8.8.5 1.8.9 8.3 1 12.2v3.5c-3.1-1.9-9.2-6.7-11.3-9.1.1-1.6.2-3.1.4-4.4 2.8 3.8 6.4 7.2 10.5 9.4.2.1.4-.2.2-.3-4-2.8-7.5-5.8-10.6-9.5h-.1c.2-1.4.4-2.6.7-3.7 2.2 3.2 5.1 6.4 8.6 8.2.2.1.4-.2.2-.3-3.3-2.5-6.2-4.9-8.5-8.4 0-.1-.1-.1-.1-.1.2-.9.4-1.7.7-2.4 1.3 1.5 2.7 3.1 4.4 4.2.2.1.4-.1.2-.3zm-27.1-25.5c.1.2.2.3.2.4.2.4.4.8.7 1.1-.2.2-.6.7-1.2 1.3.1-.9.2-1.9.3-2.8zm-3.3-4.9c1.1 1.5 2.2 3.3 2.9 4.4-.2 1.3-.5 2.7-.6 4-.2.2-.5.5-.8.7.3-1.7.6-3.5.9-5.2 0-.2-.3-.3-.3-.1-.4 1.9-.9 3.9-1.2 5.9-.3.2-.5.5-.8.7.3-1.5.4-3.1.6-4.5 0-.2-.3-.3-.3-.1-.3 1.7-.8 3.4-.9 5.1-.4.3-.8.6-1.1.9.2-1.3.5-2.5.9-3.8.1-.2-.2-.3-.3-.1-.6 1.3-1.1 2.9-1.2 4.4l-.9.6c0-.2.1-.4.1-.6l.3-2.1c0-.2-.3-.3-.3-.1-.2.7-.3 1.5-.4 2.2-.1.3-.1.6-.2 1-.2.1-.4.3-.7.4.2-.8.2-1.6.3-2.4 0-.2-.2-.2-.3-.1-.2.9-.5 1.8-.7 2.8-.2.1-.4.2-.5.3 0-.2 0-.3.1-.5.1-.6.2-1.1.2-1.7 0-.2-.2-.2-.3 0l-.3 1.8c-.1.2-.1.5-.2.8-.2.1-.5.3-.8.4.1-.5.2-1 .4-1.5.1-.2-.2-.3-.3-.1-.2.6-.4 1.2-.6 1.9-.3.1-.6.3-.9.4-.2.1-.3.2-.4.3.1-.3.2-.7.3-1 .1-.2-.2-.3-.3-.1-.2.6-.4 1.1-.5 1.7 0 .1.2.2.3.1 0 0 0-.1.1-.1 0 .1 0 .3.1.4.2.4.5.6.9.6.1 0 .2 0 .4-.1 6.4-2.6 11.5-7.9 13.1-9.6.7.8 1.5 1.6 2.2 2.2.3 1.3.2 2.6.4 3.9 0 .1.2.2.3 0 .3-1.1.1-2.4-.2-3.6.4.3.8.6 1.1.9.1.6.2 1.2.2 1.9-.8 1.1-2.2 2.1-3.9 3l.1-.1c.4-1.3.4-2.7.3-4 0-.2-.3-.2-.3 0 .1 1.4-.1 2.6-.4 4 0 .1.1.2.2.2-.7.4-1.4.7-2.2 1.1.2-1.1.4-2.2.6-3.2.1-.3-.4-.4-.4-.1-.3 1.1-.7 2.4-.9 3.6-.3.1-.6.2-.8.4l.6-2.1c.1-.2-.3-.4-.4-.1-.2.9-.6 1.7-.9 2.5-.4.2-.8.3-1.2.5.3-.8.5-1.7.6-2.4 0-.2-.3-.2-.3 0-.1.9-.4 1.6-.8 2.4-.1.1-.1.2-.2.3l-1.5.6-.3.1 1.2-3c.1-.2-.3-.3-.4-.1-.5 1.1-1 2.2-1.4 3.4-.4.2-.9.3-1.3.5.6-1 1-2.2 1.2-3.3 0-.2-.3-.3-.3-.1-.3 1.4-1 2.5-1.7 3.7l-.9.3c.5-.9.8-2 .9-2.8 0-.2-.2-.3-.3-.1-.1.8-.4 1.5-.8 2.1-.2.3-.4.6-.7 1l-.9.3c.5-.8.8-1.7 1.1-2.5.1-.2-.2-.3-.3-.1-.2.7-.5 1.3-.9 1.9-.2.3-.4.6-.7.9-.3.1-.6.2-1 .3.3-.5.5-1.1.8-1.6.1-.2-.2-.3-.2-.1-.4.6-.9 1.3-1.3 2-.2.1-.5.2-.8.3.1-.3.3-.6.4-.9.1-.2-.2-.3-.3-.1-.2.4-.5.8-.7 1.3l-.9.3c.1-.2.2-.4.4-.6.1-.2-.2-.4-.3-.2-.2.3-.5.6-.8 1-2.1.7-4.1 1.4-5.8 1.9-1.3-1-2.5-1.7-3.4-2.2 2.1-2.9 4.9-6.2 7.3-7.8.9-.6 1.9-1.3 3-1.9 4-2.6 8.6-5.4 10.8-9.8.8-1.4 1.2-2.8 1.3-4zm-16.9 30.4c2.8 2.9 3 5.5 2.5 6.3-.1.1-.2.4-.9.1-1.7-.6-3-3.8-4-6.1-.4-.9-.7-1.7-1.1-2.3.3-.1.6-.2 1-.3.8.7 1.6 1.4 2.5 2.3zm6.4-30.4c.8-.6 1.3-1.5 1.9-2.2.2-.2.3-.4.5-.6.1.4.1.9-.1 1.3l-1.5 1.5c-.5.5-1 1.1-1.4 1.6.1-1 0-2.1-.1-3.2.5-.6.8-1.3 1.2-1.9.3-.5.8-1 1.2-1.4l.6 1.5c-.3.4-.6.7-.9 1-.6.7-1.3 1.4-1.8 2.2 0 .2.3.3.4.2zm2.1-.6c-.7 1.6-1.8 2.9-2.8 3.9.1-.2.1-.5.2-.7.8-.7 1.3-1.6 2-2.4.1-.3.4-.5.6-.8zm-1.9-3.3c-.3.4-.7.9-.9 1.4-.1-.4-.1-.9-.2-1.4.5-.5.9-1.1 1.3-1.6.2-.2.4-.5.6-.8l.6.9c-.5.4-1 .9-1.4 1.5zm.5-2.8c-.3.3-.6.7-.8 1-.3.3-.6.7-.8 1v-.3c0-.3-.1-.5-.1-.8.2-.2.3-.5.4-.7.2-.4.5-.8.8-1.1.1.4.3.6.5.9zm-1.7-1.9.8.8c-.3.4-.5.8-.8 1.1-.1.1-.1.2-.2.3-.1-.5-.2-1-.3-1.4.1-.3.3-.5.5-.8zm-26.1 22.3c4.5 2.2 10.6 8.1 10.7 8.2.2.2.6.3.9.3.3-.1.6-.3.7-.6 1.1-2.7 2.4-4.1 4.3-6.2.5-.5.9-1 1.5-1.6.9-1 1.9-2 2.9-2.9 1.2-1.1 2.3-2.2 3.2-3.3.3 0 .6-.2.7-.4.1-.1.4-.3.6-.5 1.5-1.2 4.6-3.6 5.8-7.2 1.1-3.2-1.1-6.5-3-8.5 1.1.4 2.3.9 3.2 1.6 2.8 2.1 3.3 3.9 3.3 3.9v.1s0 .1.1.1c0 .1.1.1.1.2v.1c.1.1 1.7 2-.6 6.4-2 3.8-6.3 6.6-10.1 9-1.1.7-2.1 1.3-3.1 2-2.7 1.8-5.8 5.4-8.1 8.7-.2 0-.5.1-.7.3-.2-.1-.4-.1-.6-.1-.3.1-.6.1-.8.6-2.5-1.5-7.1-4-11.9-5.6-.6-.2-1.1-.4-1.7-.7h.1l1.8-2.4c.1-.1-.1-.3-.2-.2-.7.7-1.3 1.5-1.9 2.3-.1.1-.1.1 0 .2-1.2-.6-2.3-1.3-3.5-2.1.3-.8.7-1.6 1.3-2.3.4-.5.9-.9 1.4-1.2 1.1.5 2.2 1.1 3.6 1.8zm1.1 12.7.6.6c-.6 0-1.3-.1-1.9-.1-.2-.2-.3-.5-.4-.8-.1-.3-.5-.2-.4.1.1.2.1.4.3.6-.7-.1-1.5-.1-2.2-.2-.2-.2-.3-.5-.4-.7-.1-.2-.4-.1-.3.1l.3.6-2.7-.3c-.3-.4-.6-.9-.9-1.3-.1-.2-.4 0-.3.2.2.4.4.7.6 1.1-.8-.1-1.6-.2-2.3-.3-.2-.2-.4-.5-.5-.8-.3-.5-.4-1-.6-1.6-.1-.3-.6-.2-.5.1.1.7.4 1.4.8 2.1-.8-.1-1.5-.2-2.2-.4-.9-1.1-1.5-2.2-1.7-3.8 0-.3-.5-.3-.4 0 .1 1.2.5 2.5 1.2 3.6-.7-.1-1.3-.3-1.8-.5-.9-1.1-1.5-2.3-1.9-3.6.2-.1.4-.2.5-.4.3-.5.2-1.1-.3-1.4-.6-.4-1.1-.8-1.6-1.2 0-3.6.5-6.8 2.2-9.9.5.8 1.1 1.6 1.8 2.3-1.2 2.3-1.9 4.8-1.6 7.4 0 .2.3.2.3 0 .1-2.6.4-4.9 1.5-7.2.7.8 1.4 1.5 2.1 2.3-.2.8-.4 1.5-.5 2.3 0 .2.2.3.3.1.3-.6.4-1.3.6-2 3.1 3 6.7 5.4 9.8 6.5 4.4 1.5 8.7 3.7 11.2 5.2-.8.4-1.6 1-2.5 2-1.5-.1-3.2-.1-4.9-.2-.3-.3-.7-.6-1-.9-.2-.1-.5.2-.3.4zm-19.4-23.2c-2.6 2.2-4.4 5.3-4.6 8.7-.5-1-.9-1.8-1.2-2.6.5-3.3 3.5-7 5.5-9.1v.8c0 .8.1 1.5.3 2.2zm0 14.7c-.7-.6-1.2-1.2-1.8-1.8.4-3.6 1.2-6.7 3.1-9.8.3.6.6 1.1 1 1.7-1.8 2.9-2.8 6.4-2.3 9.9zm-2.2-2.3c-.8-1-1.5-2-2-2.9.4-3.5 1.7-6.6 4.4-9 .2.7.5 1.4.9 2.1-1.9 2.9-3.2 6.3-3.3 9.8zm-1.5 1.4c0 1.2.2 2.5.7 3.6l-2.7-2.4c-.3-1.6-.5-3.1-.4-4.7.7 1.1 1.4 2.3 2.4 3.5zm.5.5c.6.7 1.4 1.4 2.2 2.1.1 1.2.5 2.3 1.1 3.3-.8-.6-1.6-1.2-2.4-1.9-.5-1.1-.8-2.3-.9-3.5zm2.6 2.5c.4.4.9.7 1.4 1.1.1.1.2.1.4.1.3 1.2.8 2.3 1.5 3.3-.7-.3-1.3-.7-2-1.1-.5-1.1-1-2.2-1.3-3.4zm27.1 9.3c.6 0 1.2 0 1.8.1-.4 1.1-.8 2.3-1.1 3.4-.2.9-.2 1.7-.3 2.5-.1 1.8-.1 2.9-2.2 4-.7.4-1.2.4-1.3.3-.4-.4-.6-2.9 1.7-7.8.5-1.1.9-1.9 1.4-2.5zm-12.2-17.9c-1.2.8-2.1 2.2-2.7 3.6-1.4-1.1-2.8-2.3-4-3.6.9-.9 1.9-1.8 2.6-2.8.1-.2-.1-.3-.3-.2-.9.8-1.8 1.8-2.6 2.7-.8-.8-1.5-1.6-2.1-2.4 1.1-.9 2.3-1.7 3.4-2.5.2-.1.1-.4-.1-.3-1.3.5-2.5 1.4-3.6 2.5-.5-.6-.9-1.3-1.3-1.9 1.1-.7 2.2-1.4 3.2-2.2.1-.1 0-.3-.2-.2-1.1.6-2.1 1.4-3.2 2.1-.5-.8-.9-1.6-1.2-2.3 1.5-.8 3-1.4 4.6-2 0 0 .1 0 .1-.1 1.3 3.7 4.4 6.9 4.5 7.1.2.2.3.2.6.3.6.7 1.4 1.4 2.3 2.2zM82 155.1c.3.3.6.7.9.9-.1.3-.1.6-.1.9-.3-.2-.7-.4-1-.7-.4-.3-.7-.5-1.1-.8.2-.4.4-.8.6-1.1.3.3.5.5.7.8zm-.3-1.1c.2-.2.4-.5.6-.7.3.3.6.7.9 1-.1.3-.1.7-.2 1l-.6-.6c-.2-.3-.5-.5-.7-.7zm0 2.8c.3.3.7.6 1.1.8-.1.6-.1 1.1-.2 1.6-.3-.2-.6-.4-.9-.7-.5-.4-.9-.7-1.4-1v-.4l.3-1.2c.3.3.7.6 1.1.9zm0 4c-.4-.4-.8-.7-1.2-1.1l-.3-1.5c.4.3.7.6 1.1.9.4.3.7.6 1.1.9 0 .5-.1.9-.1 1.3-.2-.1-.4-.3-.6-.5zm.6 1.5v1.2c-.5-.8-1-1.6-1.3-2.5l.3.3c.3.3.6.7 1 1zm1.2-10c-.1.1-.1.2-.1.3-.1.3-.1.6-.2 1-.2-.2-.4-.4-.6-.7.4-.2.7-.5.9-.6zm0-2.4c-.3.1-.6.3-.9.5 0 0 0-.1-.1-.1l-.6-.3c.6 0 1.1-.1 1.6-.1zm-2.6.3c.5.2.9.4 1.4.5-.3.2-.7.5-1.1.9-.5-.5-1.2-.8-1.9-1.1.4-.1 1-.2 1.6-.3zm-3.1 1c.2-.2.4-.3.7-.4.3.1.7.2 1 .4.5.2.9.5 1.4.7-.3.3-.6.6-.8.9-.9-.4-1.9-.7-2.8-1 .3-.4.5-.6.5-.6zm-.8.9c.9.4 1.9.7 2.8 1-.3.4-.6.8-.8 1.3-1-.4-2.1-.6-3.2-.8.4-.6.8-1.1 1.2-1.5zm-1.4 1.9c1.1.2 2.1.6 3.2.9-.2.4-.3.7-.4 1.1-1.2-.2-2.4-.4-3.6-.5.3-.6.5-1.1.8-1.5zm-.9 1.8c1.2.2 2.5.4 3.7.6 0 .1-.1.3-.1.5-.1.4-.1.8-.1 1.1-1.5-.1-3 .2-4.4.6.2-1 .5-1.9.9-2.8zm-1 3.2c1.5-.4 3-.6 4.5-.8.1.9.2 1.8.5 2.6h-.1c-1.7.2-3.2 1-4.7 1.9-.3-.8-.4-1.6-.4-2.3.1-.4.2-.9.2-1.4zm-3.8-.2c.1-.1.2-.2.2-.4v-.1c.6-.6 1.1-1.3 1.7-1.9.1-.1-.1-.3-.2-.2l-1.2 1.2c.8-1.9 1.9-3 3-3.8-.8 1.5-1.5 3.3-1.7 5.3-2.1 2-3.8 4.4-5.1 7-.3.6-.6 1.2-.8 1.8-.2-.4-.2-.8-.3-.9-.1-1.8 2.6-5.9 4.4-8zm-4.4 13.5c-.3 1.6-.3 3.2.1 4.7-.8-.8-1.6-1.6-2.2-2.3 0-1.8.3-3.4.9-5 .4.8.7 1.7 1.2 2.6zm-1.4-3c-.8 1.6-1.2 3.3-1 5-.8-.8-1.3-1.5-1.8-1.9l2.8-3.1zm-20.9 14c.3.3.6.8 1.1 1.4-.5-.3-1.1-.6-1.6-1 .1-.1.3-.3.5-.4zm-4.2 4.4c.5-1.2 2-2.6 3.3-3.7.9.6 1.7 1.1 2.7 1.6.5.8 1.1 1.8 1.7 3-1.8-1.1-3.8-1.8-5.8-2.7-.3-.1-.5.3-.2.4 2 .9 4 2.1 6.1 2.8h.2c.4.9.9 1.9 1.3 3-3.1-1.3-6.1-2.6-9.1-4.1H39c-.1-.1-.1-.2 0-.3zm-2.2 10.9c3.3 2.2 6.9 3.9 10.8 4.6.2 0 .3-.3.1-.3-3.8-1.2-7.4-2.6-10.8-4.8 0-1.2.2-2.3.3-3.4 3.8 2.1 7.8 3.9 12.1 4.8.2.1.3-.3.1-.4-4.1-1.5-8.2-3-12.1-4.9.4-2.6 1.1-4.7 1.5-5.9 0 0 0 .1.1.1 3 1.8 6.1 3.4 9.5 4.4.3 1 .7 2.1.9 3.3-3.7-1.5-7.5-2.8-11-4.9-.2-.1-.4.2-.2.4 3.4 2.2 7.2 4.2 11.3 5 .4 1.9.6 3.9.7 6.1v3.9c-5.3-1.5-11.8-4.3-13.1-5-.2-1.2-.2-2.1-.2-3zm.4 20.3c0-.1 0-1.3-.1-3.1 1.7 1.2 3.6 2.4 5.6 3.1h-5.5zm12.8 0h-5.9c-2.4-1-4.7-2-6.9-3.5 0-2-.1-4.5-.1-6.8 3.4 2.9 8.5 5 12.9 6.2v4.1zm0-4.6c-4.3-2-9.1-3-12.9-6v-2.8c3.3 2.6 7.2 4.3 11.2 5.5.1 0 .1-.1.1-.1-3.8-1.8-7.8-3.2-11.2-5.6 0-1.9 0-3.2-.1-3.3 1 .6 6.2 3.1 13 5.1-.1 2.1-.1 4.9-.1 7.2zm99.2 4.6H52v-16.3c-.2-11.5-5.4-18.5-7.3-20.6 1-1.1 3.1-3.3 4.8-4.3 1.9-1.2 8.1-3.5 10.1-4.2 1.9 2.1 9.1 10.1 14.6 12.4 4 1.6 14.4 2.3 21.9 2.7-.3.5-.6 1-.9 1.6-1.1 2.4-3.5 8.1-1.3 10.1.3.3.8.6 1.6.6.6 0 1.2-.2 2.1-.6 3.1-1.7 3.2-3.8 3.3-5.7 0-.7.1-1.4.2-2.1.1-.4.2-.9.4-1.4.2 2.8.5 6.5 1 11.4.1.5.5.9 1 .9h.1c.6-.1 1-.5.9-1.1-.3-3.5-.6-7.1-.9-10.3 1.2 4.1 2.8 8.8 4.3 10.5.3.4 1 .5 1.4.1.4-.4.5-1 .1-1.4-1.6-1.9-3.5-8.4-4.7-12.7.2-.1.4-.1.8-.2.3.5.7 1.5 1.2 2.5 1.2 2.8 2.6 6.2 5.2 7.2.4.2.8.2 1.2.2.9 0 1.6-.4 2.1-1.1 1.1-1.7.5-5.4-2.8-8.8l-1.7-1.7c.4-.1.8-.3 1.3-.4v.1c-.1.1.1.2.2.1l.3-.3c4.5-1.5 9.8-3.3 13.2-4.6l.7-.3c6.2-2.5 12.1-4.8 13.5-8.8 1.6.5 4.5 1.5 5.8 2.1 1.2.5 5.4 3.9 8.1 6.4-1.2 2.1-4.1 8.5-4 21.6-.2.2-.5 13.1-.6 16.4zm2.3 0v-3.2c1.8 1.4 3.9 2.7 6.1 3.1.1 0 .3-.2.1-.3-2.1-1-4.2-1.8-6.2-3.1v-4.6c3.4 2.8 7.6 4.9 11.5 6.8v1.4l-11.5-.1zm-102.3-1.2c.2 0 .2-.2.1-.2-4.2-1.7-8.1-3.2-11.9-5.7-.1-.1-.2.1-.1.2 3.3 2.6 7.6 5 11.9 5.7zm85.3-42.8c.6-1.4.7-3 .6-4.5 0-.2-.3-.2-.3 0 .1 1.5-.1 3-.4 4.5-.1 0 .1.1.1 0z" fill="#000000" stroke-width="none" opacity="1"></path></g><g id="svga-group-head" transform="matrix(1,0,0,1,0,0)"><g id="svga-group-ears-left-move" transform="matrix(1,0,0,1,3,0)"><g id="svga-group-ears-left"><path id="SvgjsPath14621" d="M62.9 81.4s-3-4.7-6.1-5.6-6.6 2.1-6.1 7.8c.6 5.7 8.7 18.9 15.9 19.7 6.2.7-1.1-18.5-3.7-21.9z" fill="#ffffff" stroke-width="none" opacity="1"></path><path id="SvgjsPath14622" d="M66.5 104.2c-7.7-.8-16.1-14.5-16.7-20.4-.3-3.4.8-6.4 3-7.9 1.3-.9 2.9-1.2 4.4-.8 3.3.9 6.2 5.3 6.6 5.9 2.1 2.7 8.5 18 5.5 22-.5.7-1.4 1.1-2.3 1.1-.3.1-.4.1-.5.1zM53.9 77.1c-1.7 1.1-2.5 3.6-2.3 6.4.5 5.4 8.5 18.3 15 18.9.4 0 .7 0 .9-.3 2.1-2.9-3.2-17.2-5.5-20.3v-.1c-.8-1.2-3.3-4.6-5.5-5.2-.2-.1-.5-.1-.7-.1-.7.2-1.3.4-1.9.7z" fill="#000000" stroke-width="none" opacity="1"></path><path id="SvgjsPath14623" d="M55.5 79.3c2.6 1.4 5 5.6 6.2 9.6v.1c0 .3-.2.4-.3.1-.4-1.2-1-1.2-1.7 0-.2.7-.1 1.5.1 2.3.2.7.5 1.4.8 1.9.6 1.2 1.4 2 2.1 3 .2.3 0 .7-.2.5-1.6-1-3.9-4.6-3.4-7.6.2-1.4 1.1-2.2 1.8-1.7-.9-2.1-1.9-3.9-3.2-5.4-.7-.8-2.3-2.7-3.1-2.3-1.5.6-.7 4.6-.5 6.4 0 .3-.2.4-.3.1-1-2.9-1.1-8.5 1.7-7z" fill="#000000" stroke-width="none" opacity="1"></path><path id="SvgjsPath14624" d="M61.9 97.8c-2.8-.9-4.8-4.6-6-8.8-.7-2.5-2.1-8.3.6-8.2.2 0 .3.5.1.6-2.5 1.1.2 8.9 1 10.7 1.1 2.6 2.5 4.3 4.3 5.2.2.2.2.6 0 .5z" fill="#000000" stroke-width="none" opacity="1"></path></g></g><g id="svga-group-ears-right-move" transform="matrix(1,0,0,1,-3,0)"><g id="svga-group-ears-right"><path id="SvgjsPath14625" d="M137.1 81.4s3-4.7 6.1-5.6 6.6 2.1 6.1 7.8c-.6 5.7-8.7 18.9-15.9 19.7-6.2.7 1.1-18.5 3.7-21.9z" fill="#ffffff" stroke-width="none" opacity="1"></path><path id="SvgjsPath14626" d="M133.1 104.2c-1 0-1.8-.4-2.3-1.1-2.9-4 3.4-19.3 5.5-22 .4-.6 3.3-5.1 6.6-5.9 1.5-.4 3-.1 4.4.8 2.2 1.5 3.3 4.4 3 7.9-.6 5.9-9 19.6-16.7 20.4-.2-.1-.3-.1-.5-.1zm11.1-27.6c-.2 0-.5 0-.7.1-2.2.6-4.7 3.9-5.5 5.2v.1c-2.4 3-7.7 17.4-5.5 20.3.2.3.4.4.9.3 6.5-.7 14.5-13.6 15-18.9.3-2.9-.6-5.3-2.3-6.4-.6-.5-1.2-.7-1.9-.7z" fill="#000000" stroke-width="none" opacity="1"></path><path id="SvgjsPath14627" d="M144.5 79.3c-2.6 1.4-5 5.6-6.2 9.6v.1c0 .3.2.4.3.1.4-1.2 1-1.2 1.7 0 .2.7.1 1.5-.1 2.3-.2.7-.5 1.4-.8 1.9-.6 1.2-1.4 2-2.1 3-.2.3 0 .7.2.5 1.6-1 3.9-4.6 3.4-7.6-.2-1.4-1.1-2.2-1.8-1.7.9-2.1 1.9-3.9 3.2-5.4.7-.8 2.3-2.7 3.1-2.3 1.5.6.7 4.6.5 6.4 0 .3.2.4.3.1 1-2.9 1.1-8.5-1.7-7z" fill="#000000" stroke-width="none" opacity="1"></path><path id="SvgjsPath14628" d="M138.1 97.8c2.8-.9 4.8-4.6 6-8.8.7-2.5 2.1-8.3-.6-8.2-.2 0-.3.5-.1.6 2.5 1.1-.2 8.9-1 10.7-1.1 2.6-2.5 4.3-4.3 5.2-.2.2-.2.6 0 .5z" fill="#000000" stroke-width="none" opacity="1"></path></g></g><g id="svga-group-faceshape-wrap" transform="matrix(0.9599996000000002,0,0,0.9997996000000002,4.038237556043995,0.017294521376015837)"><g id="svga-group-faceshape-single"><path id="SvgjsPath14659" d="M138.2 58.2c-2-10.8-13.3-27.4-37.2-27.4S69.1 43.5 65.5 53c-3 8.1-3 21.3-3 21.3s.4 28.4 10 46.1c9.3 17 28.9 31.8 46.2 11.8 21.5-24.8 20.6-57.8 20.6-57.8s.3-8.5-1.1-16.2z" fill="#ffffff" stroke-width="none" opacity="1"></path><path id="SvgjsPath14660" d="M100.7 143.1c-.8 0-1.5 0-2.3-.1-11.8-1.3-21.7-12.2-27-22-9.6-17.7-10.2-45.5-10.2-46.7 0-.6 0-13.6 3.1-21.8 5.8-15.5 17.8-23 36.7-23 10.9 0 20.5 3.4 27.7 10 5.5 5 9.6 11.9 10.8 18.5 1.4 7.6 1.2 15.7 1.2 16.4s.1 8.8-2.3 19.9c-2.3 10.5-7.4 25.8-18.7 38.8-5.8 6.6-12.2 10-19 10zm.3-111c-17.7 0-28.9 7-34.3 21.3-2.9 7.8-2.9 20.8-2.9 20.9 0 .3.5 28.3 9.9 45.5 5 9.2 14.2 19.5 25 20.6 6.8.7 13.3-2.3 19.1-9.1 20.9-24.1 20.3-56.6 20.3-57 0-.1.2-8.4-1.2-15.9-1.1-6-4.8-12.4-10-17-6.6-6.1-15.6-9.3-25.9-9.3z" fill="#000000" stroke-width="none" opacity="1"></path></g></g><g id="svga-group-mouth-single-move" transform="matrix(1,0,0,1,0,0)"><g id="svga-group-mouth-single" transform="matrix(0.8999996000000001,0,0,0.8999996000000001,10.00406661980513,12.098301261663806)"><path id="SvgjsPath14610" d="M117.11 115.24c-.34-.18-.6-.42-.78-.76-.35-.63-1.32-.07-.97.57.05.09.12.16.18.24-.01 0-.02 0-.03.01a38.04 38.04 0 0 1-7.15 2.53.56.56 0 0 0-.26-.01c-2.35.46-4.66.17-7.03.14-.74-.01-1.58.02-1.84.66-.71-.88-1.89-.76-3.04-.77-2.01-.01-4.03.01-6.04-.01h-.03c-1.84-.45-3.64-1.04-5.41-1.76l-.03-.03c.03-.17 0-.35-.14-.49-.2-.2-.6-.23-.79 0-.3.35-.59.7-.89 1.05-.2.23-.23.57 0 .79.2.2.6.23.79 0 .12-.14.24-.28.35-.42.02.01.03.03.05.04h.01c2.85 2.85 5.63 5.83 8.62 8.54 2.43 2.21 5.3 2.28 8.46 2.17 3.4-.13 5.96-1.38 8.39-3.76 2.48-2.43 4.79-5.09 6.93-7.83.03.01.04.04.07.05.27.14.61.07.77-.2.16-.23.08-.61-.19-.75zm-30.48 2.75c9.03 3.05 18.91 2.7 27.73-.97-1.34 1.61-2.75 3.16-4.18 4.68-6.42 2.51-13.26 2.45-19.73.02-.02-.01-.03.01-.05 0-1.26-1.24-2.51-2.48-3.77-3.73zm22.46 4.84-.06-.12c.09-.03.19-.06.28-.1l-.22.22zm-.5.49c-.07-.13-.15-.27-.22-.4.04-.01.08-.02.12-.04v.02c.06.11.11.23.17.34-.02.03-.04.06-.07.08zm-.89.77c-.19-.27-.38-.55-.57-.82.07-.02.15-.03.22-.05l.39.84c-.02.01-.03.02-.04.03zm-.65.48-1.03-1.03.52-.12c.24.34.47.68.71 1.02-.07.04-.13.08-.2.13zm-.83.54c-.31-.48-.62-.96-.92-1.44l.18-.03c-.01.07.01.15.08.22l1.04 1.04c-.13.07-.26.14-.38.21zm-.72.4c-.3-.57-.61-1.14-.91-1.72.04-.01.08-.01.12-.02v.01l1.02 1.59c-.08.06-.15.11-.23.14zm-.54.24c-.44-.58-.81-1.2-1.13-1.84.06-.01.11-.02.17-.02l.99 1.86c-.02-.01-.03-.01-.03 0zm-.91.34c-.48-.65-.89-1.34-1.25-2.07.14-.01.28-.02.42-.04.34.7.74 1.36 1.21 1.99-.12.04-.25.08-.38.12zm-.68.19c-.57-.73-1.14-1.46-1.7-2.18.18-.01.36-.01.53-.03.35.77.8 1.49 1.29 2.18-.04 0-.08.02-.12.03zm-.83.16c-.44-.58-.82-1.18-1.16-1.82l1.39 1.78c-.08.02-.15.03-.23.04zm-.85.13c-.6-.78-1.14-1.59-1.62-2.45h.44c0 .02-.01.04 0 .07.39.83.88 1.6 1.42 2.35l-.24.03zm-.97.05c-.54-.8-1.01-1.63-1.41-2.51.05 0 .09.01.14.01.01.03-.01.05.01.08.47.84 1 1.64 1.57 2.41-.1 0-.2.01-.31.01zm-.77.02c-.53-.86-1.06-1.72-1.59-2.59.11.01.22.01.33.02v.03c.39.89.86 1.73 1.39 2.54h-.13zm-2.19-.05c-.62-.89-1.18-1.82-1.67-2.8.03.01.07.01.1.02 0 .04.01.09.05.13.66.92 1.4 1.78 2.09 2.68l-.57-.03zm-.97-.12c-.53-.92-1.03-1.86-1.5-2.82.04.01.08.02.11.02v.02c.47.98 1.03 1.9 1.63 2.8-.08 0-.16 0-.24-.02zm-1.71-.55c-.59-.9-1.18-1.81-1.78-2.71.1.03.2.05.3.08.53.9 1.06 1.79 1.59 2.69a1.09 1.09 0 0 0-.11-.06zm-1.74-1.26c-.38-.53-.7-1.1-.97-1.7.05.01.1.03.14.04.01.02 0 .03.01.05l1.38 2.1c-.19-.16-.38-.32-.56-.49zm2.68 1.61c-.55-.93-1.1-1.87-1.65-2.8.07.02.15.03.22.05.45.94.94 1.85 1.45 2.76-.01 0-.02-.01-.02-.01zm2.97.37c.01-.01.01-.02.02-.03-.17-.18-.31-.42-.46-.61-.54-.7-1.1-1.38-1.63-2.08.25.03.51.05.76.08.01.01 0 .02 0 .03.54.87 1.08 1.75 1.61 2.62-.1-.01-.2-.01-.3-.01zm2.11-2.52c.01 0 .01 0 0 0 .01 0 .01 0 0 0 .01 0 0 0 0 0zm-9.81-1.51c.15.05.31.1.46.15-.01.05-.03.09-.01.15.04.1.09.19.13.29l-.09-.09c-.16-.17-.33-.33-.49-.5z" fill="#000000" stroke-width="none" opacity="1"></path></g></g><g id="svga-group-eyes-left-move" transform="matrix(1,0,0,1,0,0)"><g id="svga-group-eyes-left"><g id="svga-group-eyesback-left"></g><g id="svga-group-eyesiriswrapper-left"><g id="svga-group-eyesiriscontrol-left" transform="matrix(1,0,0,1,0,0)"><g id="svga-group-eyesiris-left"><path id="SvgjsPath14692" d="M77.3 84.5c-1.4 1.8-1.2 4.1.4 5.5 1.7 1.5 4.5 1.9 6.5.1 1-1 1.7-2.4 1.4-3.7-.1-.4-.3-.9-.5-1.3-.2-.5-.5-1-.9-1.4-2-1.7-5.2-1.4-6.9.8z" fill="#ffffff" stroke-width="none" opacity="1"></path><path id="SvgjsPath14693" d="M85.8 86.3c-.1-.5-.3-.9-.6-1.3-.2-.6-.5-1-1-1.4-.9-.8-2.2-1.2-3.5-1.1-1.4.1-2.8.8-3.7 1.9-1.5 1.8-1.3 4.3.4 5.9.9.9 2.3 1.4 3.6 1.4 1.1 0 2.3-.4 3.2-1.3 1.3-1.3 1.9-2.8 1.6-4.1zm-.6-.1c-.6.1-1.2.1-1.9.2 0-.1-.1-.2-.1-.2.4-.1.7-.3 1.1-.5.2-.1.4-.1.6-.2.1.2.2.5.3.7zm-.8-1.6.3.6v.1c-.6.3-1.1.5-1.7.8-.1-.1-.1-.2-.2-.3.6-.5 1.1-.9 1.6-1.2zm-.6-.7c.2.1.3.3.4.4-.5.3-1.1.7-1.5 1.2l-.1-.1c-.1-.1-.2-.1-.2-.2.2-.3.4-.7.6-1 .1-.2.3-.4.4-.6.2.1.3.2.4.3zm-1.9.1c0-.3.1-.7.1-1 .4.1.8.2 1.2.5-.2.2-.3.4-.4.6-.2.3-.4.7-.6 1-.1-.1-.3-.1-.4-.2.1-.3.1-.6.1-.9zm-1.1-1.1h.4c.2 0 .4 0 .6.1-.1.3-.1.6-.1 1 0 .3-.1.7-.1 1-.2 0-.3-.1-.5-.1 0-.3-.1-.6-.1-.9-.1-.4-.2-.8-.2-1.1zm-4.1 3.6c.6.2 1.4.4 2 .3v.7c-.7-.1-1.3 0-2 0-.1-.4 0-.7 0-1zm0 1.2c.7-.1 1.3-.1 2-.1 0 .1.1.2.1.2-.3.1-.7.2-1 .4-.3.1-.6.2-.8.3-.1-.2-.2-.5-.3-.8zm.7 1.5c-.1-.1-.2-.3-.3-.4.3-.1.6-.2.8-.4.3-.1.6-.2.9-.4-.4.5-.9.8-1.4 1.2zm.4.5-.3-.3c.5-.3 1-.7 1.5-1.1.1.1.1.2.2.2-.2.2-.4.4-.6.7-.2.2-.4.5-.6.8 0-.1-.1-.2-.2-.3zm.5.4c.2-.2.4-.5.6-.8.2-.2.4-.4.5-.6.1.1.2.1.3.2-.2.2-.3.5-.5.8-.2.2-.3.4-.5.7-.1-.1-.2-.2-.4-.3zm.7.4c.2-.2.3-.4.4-.5l.6-.9c.1 0 .2.1.3.1-.2.5-.2 1.1-.5 1.6-.3-.1-.5-.2-.8-.3zm1 .3c.3-.5.4-1.1.5-1.6.2 0 .3.1.5.1-.1.5 0 1.1 0 1.7-.3 0-.6-.1-1-.2zm1.3.2c0-.5 0-1.1-.1-1.7.2 0 .3 0 .5-.1.1.5.3 1.1.5 1.6-.3.1-.6.1-.9.2zm3-1.6c-.4-.2-.8-.5-1.2-.8 0 .1-.1.2-.1.2.3.3.7.6 1 .8l-.2.2c-.2.2-.3.3-.5.4-.1-.2-.3-.4-.4-.6-.1-.2-.2-.3-.3-.5-.1 0-.2.1-.2.1.1.2.2.3.3.5.1.2.3.5.4.7-.2.1-.5.2-.7.3-.2-.5-.3-1.1-.6-1.6.1 0 .1 0 .1-.1l-.3-.3c-.7.2-1.6 0-2.1-.5-.4-.3-.6-.8-.5-1.3-.2-.1-.4-.3-.4-.6-.3-.1-.7-.1-1-.1-.3 0-.6-.1-.9-.2.1-.3.2-.7.4-1 .3.2.6.3.9.5.2.1.3.2.5.3 0-.1 0-.2.1-.3-.2-.1-.3-.1-.5-.2-.3-.1-.6-.3-.9-.4.1-.1.2-.2.2-.3l.6-.6c.1.2.3.4.5.6.1.1.2.3.4.4.1-.1.2-.1.2-.2l-.1-.1c-.2-.2-.3-.4-.5-.6-.1-.1-.2-.3-.3-.4.2-.2.5-.3.8-.5.1.3.2.5.4.7.1.2.3.4.4.6.1 0 .3 0 .4.1l-.6-.9c-.1-.2-.2-.5-.3-.7.3-.2.7-.2 1.1-.3 0 .3.1.7.2 1 .1.3.1.6.2.9-.2 0-.3.1-.4.1.1.1.3.2.3.3h.4c.5 0 .9.2 1.2.4.2.2.3.3.4.6.1.2.2.3.2.5.1.3 0 .6-.1.9.1.1.2.2.3.4 0 0 0-.1.1-.1.2.2.6.3.8.5.2.1.5.3.7.4-.1.5-.3.6-.4.8zm.5-.8c-.2 0-.8-.4-.9-.5-.2-.1-.3-.2-.5-.2 0 0-.1 0-.2-.1.1-.2.1-.4.2-.6.6.2 1.2.2 1.8.3-.1.4-.2.8-.4 1.1zm.4-1.3-1.8-.3v-.4c.6 0 1.3-.1 1.8-.2.1.4.1.6 0 .9zm-2.8.3h.2c.3-.9-.2-1.9-1.2-2.2-.2-.1-.4-.1-.6-.1.3.7 0 1.8-1.1 1.8h-.3c.1.6.3 1.1 1 1.4.4.2.9.2 1.2.1 0-.4.2-1 .8-1z" fill="#000000" stroke-width="none" opacity="1"></path></g></g></g><g id="svga-group-eyesfront-left"><path id="SvgjsPath14742" d="M81 74.4c-6.9 0-12.5 5.6-12.5 12.5S74.1 99.4 81 99.4s12.5-5.6 12.5-12.5S87.9 74.4 81 74.4zm7.1 17s-3.9.4-5.4.4c-4.1 0-7.1-1.8-7.1-1.8s-7.5-5.3-2.3-7.1c5-1.7 11.2.8 13.2 2.9 2.1 2.1 1.6 5.6 1.6 5.6z" fill="#ffffff" stroke-width="none" opacity="1"></path><path id="SvgjsPath14743" d="M71.3 84c-.3.8-.2 1.7.4 2.8 1.4 2.4 3.9 4.2 7.1 4.9 1.2.3 2.5.4 3.9.4s3-.1 4.7-.4c.1 0 .2-.1.3-.2 0 .1.1.3.3.3.2.1.5 0 .6-.3.7-1.9 0-4.3-1.6-6-1.2-1.3-3-2.2-5.4-3-3.2-.9-5.9-1-8.2-.2-1.2.5-1.8 1-2.1 1.7zm.8.4c.2-.5.7-.8 1.5-1.1 2.1-.7 4.7-.6 7.7.2 2.3.7 3.9 1.5 5 2.7 1.4 1.4 1.9 3.4 1.4 4.9-.1-.2-.2-.3-.4-.3h-.1c-3.3.6-6 .6-8.3 0-2.9-.7-5.3-2.3-6.5-4.5-.3-.5-.6-1.3-.3-1.9zm-4.9-3c.1 0 .2.1.2.2 0 .3.1.5.3.7.4.3 1.3.4 2.2.3.4-.1.9-.3 1.6-.5 1.6-.6 3.8-1.3 6.5-1.4 3.6-.1 8.3 1.2 10.3 4.2 1.2 1.7 1.7 4.2 1.5 7.2v.1c0 .1-.1.2-.2.2s-.2-.1-.2-.2V92c.2-2.9-.3-5.3-1.4-7-1.9-2.8-6.5-4.1-9.9-4-2.6 0-4.8.8-6.4 1.3-.6.2-1.2.4-1.6.5-1.1.4-2.1.2-2.6-.2-.3-.2-.5-.6-.5-1 0-.1.1-.2.2-.2z" fill="#000000" stroke-width="none" opacity="1"></path></g></g></g><g id="svga-group-eyes-right-move" transform="matrix(1,0,0,1,0,0)"><g id="svga-group-eyes-right"><g id="svga-group-eyesback-right"></g><g id="svga-group-eyesiriswrapper-right"><g id="svga-group-eyesiriscontrol-right" transform="matrix(1,0,0,1,0,0)"><g id="svga-group-eyesiris-right"><path id="SvgjsPath14694" d="M115.8 84.5c-1.4 1.8-1.2 4.1.4 5.5 1.7 1.5 4.5 1.9 6.5.1 1-1 1.7-2.4 1.4-3.7-.1-.4-.3-.9-.5-1.3-.2-.5-.5-1-.9-1.4-2.1-1.7-5.3-1.4-6.9.8z" fill="#ffffff" stroke-width="none" opacity="1"></path><path id="SvgjsPath14695" d="M124.2 86.3c-.1-.5-.3-.9-.6-1.3-.2-.6-.5-1-1-1.4-.9-.8-2.2-1.2-3.5-1.1-1.4.1-2.8.8-3.7 1.9-1.5 1.8-1.3 4.3.4 5.9.9.9 2.3 1.4 3.6 1.4 1.1 0 2.3-.4 3.2-1.3 1.4-1.3 1.9-2.8 1.6-4.1zm-.6-.1c-.6.1-1.2.1-1.9.2 0-.1-.1-.2-.1-.2.4-.1.7-.3 1.1-.5.2-.1.4-.1.6-.2.2.2.3.5.3.7zm-.7-1.6.3.6v.1c-.6.3-1.1.5-1.7.8-.1-.1-.1-.2-.2-.3.6-.5 1.1-.9 1.6-1.2zm-.6-.7c.2.1.3.3.4.4-.5.3-1.1.7-1.5 1.2l-.1-.1c-.1-.1-.2-.1-.2-.2.2-.3.4-.7.6-1 .1-.2.3-.4.4-.6.2.1.3.2.4.3zm-1.9.1c0-.3.1-.7.1-1 .4.1.8.2 1.2.5-.2.2-.3.4-.4.6-.2.3-.4.7-.6 1-.1-.1-.3-.1-.4-.2 0-.3.1-.6.1-.9zm-1.1-1.1h.4c.2 0 .4 0 .6.1-.1.3-.1.6-.1 1 0 .3-.1.7-.1 1-.2 0-.3-.1-.5-.1 0-.3-.1-.6-.1-.9-.1-.4-.2-.8-.2-1.1-.1 0-.1 0 0 0zm-4.1 3.6c.6.2 1.4.4 2 .3v.7c-.7-.1-1.3 0-2 0-.1-.4-.1-.7 0-1zm0 1.2c.7-.1 1.3-.1 2-.1 0 .1.1.2.1.2-.3.1-.7.2-1 .4-.3.1-.6.2-.8.3-.2-.2-.3-.5-.3-.8zm.7 1.5c-.1-.1-.2-.3-.3-.4.3-.1.6-.2.8-.4.3-.1.6-.2.9-.4-.5.5-1 .8-1.4 1.2zm.4.5-.3-.3c.5-.3 1-.7 1.5-1.1.1.1.1.2.2.2-.2.2-.4.4-.6.7-.2.2-.4.5-.6.8 0-.1-.1-.2-.2-.3zm.5.4c.2-.2.4-.5.6-.8.2-.2.4-.4.5-.6.1.1.2.1.3.2-.2.2-.3.5-.5.8-.2.2-.3.4-.5.7-.1-.1-.3-.2-.4-.3zm.7.4c.2-.2.3-.4.4-.5l.6-.9c.1 0 .2.1.3.1-.2.5-.2 1.1-.5 1.6-.3-.1-.6-.2-.8-.3zm1 .3c.3-.5.4-1.1.5-1.6.2 0 .3.1.5.1-.1.5 0 1.1 0 1.7-.3 0-.7-.1-1-.2zm1.3.2c0-.5 0-1.1-.1-1.7.2 0 .3 0 .5-.1.1.5.3 1.1.5 1.6-.3.1-.6.1-.9.2zm3-1.6c-.4-.2-.8-.5-1.2-.8 0 .1-.1.2-.1.2.3.3.7.6 1 .8l-.2.2c-.2.2-.3.3-.5.4-.1-.2-.3-.4-.4-.6-.1-.2-.2-.3-.3-.5-.1 0-.2.1-.2.1.1.2.2.3.3.5.1.2.3.5.4.7-.2.1-.5.2-.7.3-.2-.5-.3-1.1-.6-1.6.1 0 .1 0 .1-.1l-.3-.3c-.7.2-1.6 0-2.1-.5-.4-.3-.6-.8-.5-1.3-.2-.1-.4-.3-.4-.6-.3-.1-.7-.1-1-.1-.3 0-.6-.1-.9-.2.1-.3.2-.7.4-1 .3.2.6.3.9.5.2.1.3.2.5.3 0-.1 0-.2.1-.3-.2-.1-.3-.1-.5-.2-.3-.1-.6-.3-.9-.4.1-.1.2-.2.2-.3l.6-.6c.1.2.3.4.5.6.1.1.2.3.4.4.1-.1.2-.1.2-.2l-.1-.1c-.2-.2-.3-.4-.5-.6-.1-.1-.2-.3-.3-.4.2-.2.5-.3.8-.5.1.3.2.5.4.7.1.2.3.4.4.6.1 0 .3 0 .4.1l-.6-.9c-.1-.2-.2-.5-.3-.7.3-.2.7-.2 1.1-.3 0 .3.1.7.2 1 .1.3.1.6.2.9-.2 0-.3.1-.4.1.1.1.3.2.3.3h.4c.5 0 .9.2 1.2.4.2.2.3.3.4.6.1.2.2.3.2.5.1.3 0 .6-.1.9.1.1.2.2.3.4 0 0 0-.1.1-.1.2.2.6.3.8.5.2.1.5.3.7.4-.2.5-.3.6-.4.8zm.5-.8c-.2 0-.8-.4-.9-.5-.2-.1-.3-.2-.5-.2 0 0-.1 0-.2-.1.1-.2.1-.4.2-.6.6.2 1.2.2 1.8.3-.1.4-.2.8-.4 1.1zm.4-1.3-1.8-.3v-.4c.6 0 1.3-.1 1.8-.2 0 .4.1.6 0 .9zm-2.8.3h.2c.3-.9-.2-1.9-1.2-2.2-.2-.1-.4-.1-.6-.1.3.7 0 1.8-1.1 1.8h-.3c.1.6.3 1.1 1 1.4.4.2.9.2 1.2.1-.1-.4.2-1 .8-1z" fill="#000000" stroke-width="none" opacity="1"></path></g></g></g><g id="svga-group-eyesfront-right"><path id="SvgjsPath14744" d="M119 74.4c-6.9 0-12.5 5.6-12.5 12.5s5.6 12.5 12.5 12.5 12.5-5.6 12.5-12.5-5.6-12.5-12.5-12.5zm5.3 15.6s-3 1.7-7.1 1.8c-1.5 0-5.4-.4-5.4-.4s-.5-3.4 1.5-5.5 8.2-4.6 13.2-2.9c5.4 1.7-2.2 7-2.2 7z" fill="#ffffff" stroke-width="none" opacity="1"></path><path id="SvgjsPath14747" d="M126.6 82.4c-2.3-.8-5.1-.7-8.2.2-2.4.7-4.2 1.7-5.4 3-1.6 1.7-2.3 4-1.6 6 .1.2.3.4.6.3.2-.1.3-.2.3-.3.1.1.2.2.3.2 1.7.3 3.3.4 4.7.4 1.4 0 2.7-.1 3.9-.4 3.1-.7 5.7-2.6 7.1-4.9.6-1.1.7-2 .4-2.8-.4-.8-1-1.3-2.1-1.7zm.9 3.9c-1.2 2.2-3.6 3.8-6.5 4.5-2.3.6-4.9.5-8.3 0h-.1c-.2 0-.4.1-.4.3-.5-1.6.1-3.5 1.4-4.9 1.1-1.2 2.7-2 5-2.7 3-.9 5.6-.9 7.7-.2.8.3 1.3.6 1.5 1.1.3.6 0 1.4-.3 1.9zm5.2-4.9c-.1 0-.2.1-.2.2 0 .3-.1.5-.3.7-.4.3-1.3.4-2.2.3-.4-.1-.9-.3-1.6-.5-1.6-.6-3.8-1.3-6.5-1.4-3.6-.1-8.3 1.2-10.3 4.2-1.2 1.7-1.7 4.2-1.5 7.2v.1c0 .1.1.2.2.2s.2-.1.2-.2V92c-.2-2.9.3-5.3 1.4-7 1.9-2.8 6.5-4.1 9.9-4 2.6 0 4.8.8 6.4 1.3.6.2 1.2.4 1.6.5 1.1.2 2.1.1 2.6-.3.3-.2.5-.6.5-1 0 0-.1-.1-.2-.1z" fill="#000000" stroke-width="none" opacity="1"></path></g></g></g><g id="svga-group-facehighlight-single"></g><g id="svga-group-eyebrows-left-move" transform="matrix(1,0,0,1,0,0)"><g id="svga-group-eyebrows-left-rotate" transform="matrix(0.9825664732332883,-0.1859116071629145,0.1859116071629145,0.9825664732332883,-12.587181116153957,16.12937643312199)"><g id="svga-group-eyebrows-left"><path id="SvgjsPath14784" d="M74.33 71.59c1.52-.07 17.06 3.38 17.49 4.03.43.65-.65 3.02-1.15 3.17-.5.14-15.19-4.53-15.83-4.39-.65.14-6.91 2.59-7.34 2.38-.44-.22 5.32-5.12 6.83-5.19z" fill="#ffffff" stroke-width="none" opacity="1"></path><path id="SvgjsPath14785" d="M67.28 77.2c.35.18.9.08 5.66-1.64.84-.31 1.71-.62 1.97-.69.63.05 4.8 1.29 8.16 2.29 5.89 1.75 7.16 2.1 7.6 2.1.06 0 .11-.01.15-.02.67-.19 1.21-1.59 1.31-1.87.24-.64.45-1.52.11-2.03-.69-1.04-16.86-4.29-17.91-4.24-1.63.08-7.13 4.66-7.31 5.5-.07.26.04.49.26.6zm7.07-5.13c.13-.01.37.01.68.06l2.07 2.3c-1.61-.45-2.16-.55-2.37-.5-.03.01-.08.02-.12.04l-2.21-.88c.86-.59 1.6-1 1.95-1.02zm3.91 2.69-2.22-2.47c.77.13 1.74.32 2.82.54l1.57 2.56c-.84-.25-1.56-.46-2.17-.63zm3.08.9-1.63-2.65c.72.15 1.47.31 2.23.48l.63 2.53c-.43-.13-.84-.25-1.23-.36zm6.77 1.99c-.33-.1-.68-.2-1.05-.3l.67-2.5c.48.12.93.24 1.34.35l-.96 2.45zm1.59-2.28c.3.08.57.16.81.23l-.96 2.45c-.24-.07-.52-.14-.81-.22l.96-2.46zm-3.25 1.8c-.48-.14-.98-.29-1.48-.44l.38-2.46c.61.14 1.2.29 1.76.43l-.66 2.47zm4.1 1.13c-.09-.01-.22-.04-.37-.08l.95-2.41c.14.05.25.09.32.13.11.44-.52 1.99-.9 2.36zm-7.22-2.05c-.01 0-.03-.01-.04-.01l-.65-2.59c.7.16 1.4.32 2.08.48l-.37 2.43c-.34-.11-.69-.22-1.02-.31zm-10.72-1.59c-.12.04-.25.09-.39.14-.53.02-1.48.07-2.24.11.57-.47 1.19-.95 1.79-1.38l1.9.75c-.3.1-.63.23-1.06.38zm-3.91 1.36c.14-.13.31-.28.48-.43.27-.01.6-.03.96-.05-.52.18-1.02.35-1.44.48z" fill="#000000" stroke-width="none" opacity="1"></path></g></g></g><g id="svga-group-eyebrows-right-move" transform="matrix(1,0,0,1,0,0)"><g id="svga-group-eyebrows-right-rotate" transform="matrix(0.9825664628500238,0.18591166203977832,-0.18591166203977832,0.9825664628500238,16.076022027835037,-21.05566287806363)"><g id="svga-group-eyebrows-right"><path id="SvgjsPath14786" d="M125.67 71.59c-1.52-.07-17.06 3.38-17.49 4.03-.43.65.65 3.02 1.15 3.17.5.14 15.19-4.53 15.83-4.39.65.14 6.91 2.59 7.34 2.38s-5.32-5.12-6.83-5.19z" fill="#ffffff" stroke-width="none" opacity="1"></path><path id="SvgjsPath14787" d="M133 76.61c-.18-.84-5.68-5.42-7.31-5.5-1.06-.05-17.22 3.2-17.91 4.24-.34.51-.13 1.39.11 2.03.1.28.65 1.68 1.31 1.87.04.01.08.02.15.02.43 0 1.71-.35 7.6-2.1 3.36-1 7.53-2.24 8.16-2.29.25.07 1.12.38 1.97.69 4.76 1.72 5.3 1.81 5.66 1.64.2-.12.31-.35.26-.6zm-5.4-3.52-2.21.88c-.04-.01-.09-.03-.12-.04-.21-.05-.76.06-2.37.5l2.07-2.3c.31-.04.55-.06.68-.06.35.02 1.09.43 1.95 1.02zm-8.02 2.3 1.57-2.56c1.08-.22 2.05-.41 2.82-.54l-2.22 2.47c-.62.17-1.34.38-2.17.63zm-2.16.63.63-2.53c.76-.17 1.51-.33 2.23-.48l-1.63 2.65c-.38.11-.79.23-1.23.36zm-6.5-.82c.41-.11.86-.23 1.34-.35l.67 2.5c-.37.11-.72.21-1.05.3l-.96-2.45zm.35 2.63c-.3.08-.57.16-.81.22l-.96-2.45c.24-.07.51-.15.81-.23l.96 2.46zm1.61-3.13c.56-.14 1.15-.28 1.76-.43l.38 2.46c-.5.15-.99.29-1.48.44l-.66-2.47zm-4.32 1.23c.07-.04.18-.08.32-.13l.95 2.41c-.16.04-.29.07-.37.08-.39-.36-1.02-1.91-.9-2.36zm7.09.62-.37-2.43c.68-.16 1.38-.32 2.08-.48l-.65 2.59c-.01 0-.03.01-.04.01-.33.1-.68.21-1.02.31zm10.68-2.27 1.9-.75c.6.43 1.22.92 1.79 1.38-.76-.04-1.71-.09-2.24-.11-.14-.05-.27-.1-.39-.14-.43-.15-.76-.28-1.06-.38zm3.54 1.26c.36.02.68.03.96.05.17.15.33.3.48.43-.43-.13-.93-.3-1.44-.48z" fill="#000000" stroke-width="none" opacity="1"></path></g></g></g><g id="svga-group-nose-single-move" transform="matrix(1,0,0,1,0,0)"><g id="svga-group-nose-single"><path id="SvgjsPath14774" d="M95.9 107.5c2 1 4.3 2 6.4 1 2.2-1.1 2.2-3.4 2-5.6-.8-6.5-1.9-13-3.3-19.4-.2-.8-1.4-.5-1.2.3 1 4.7 1.9 9.4 2.6 14.2.3 2.3 1.1 5 .8 7.3-.5 3.6-4.5 2.2-6.6 1.1-.8-.3-1.4.8-.7 1.1z" fill="#000000" stroke-width="none" opacity="1"></path></g></g><g id="svga-group-hair-front" transform="matrix(0.9599996000000002,0,0,0.9997996000000002,3.939423320230844,0.01661689605673189)"><path id="SvgjsPath14827" d="M81.3 51.3s6.6-12.2 16.8-14c10.3-1.9 18.7 2.8 16.2 10.3s-4.7 20.6 5.6 19.7 17.5 5.9 18.1 12.8c.9 9.5-9.4 16.2-8.1 24.7s10.6 3.7 15.6 9.4-9.4 7.5-10.6 13.4c-1.2 5.9 7.2 13.4 12.2 12.2 0 0-5.9-3.4-2.8-6.9 3.1-3.4 13.2-2 18.1-8.1 6.6-8.1 3.4-20.3-5.3-25.6-8.7-5.3 1.9-11.9 7.2-20.6s-4.1-18.4-16.2-24.3-9.1-11.9-6.6-16.2-4.7-13.4-20-11.5-11.6-3.7-17.5-7.8c-5.8-4.3-13-2.4-17.1 3.2s-16.2 2.5-18.1 9.7c0 0-11.9-4.7-15.9 1.2s-1.9 9.7-7.2 13.4c-5.3 3.7-7.2 11.5-3.1 17.5S32 68.5 30.8 76.9s7.5 10.9 9.4 21.5-4.4 13.4-6.5 20.3 9.4 10.6 17.8 14 1.2 14.7 1.2 14.7 15.3-9.1 11.9-19-7.8-9.4-5.6-15.3 11.2-5 11.2-11.9-4.4-4.6-5-11.9c-.6-7.5 2.5-5.6 4.1-14 1.2-6.4-4.4-9.1-4.1-15.9S75.4 47 81.3 51.3z" fill="#ffffff" stroke-width="none" opacity="1"></path><path id="SvgjsPath14828" d="M166.7 111.5c-.9-5.4-4.3-10.4-9-13.2-1.7-1-2.6-2.1-2.8-3.3-.4-2.4 2.2-5.6 5.1-9 1.8-2.2 3.7-4.5 5.3-7 1.7-2.8 2.1-5.8 1.2-9-1.8-6-8.3-12.1-17.8-16.8-4.6-2.2-7.3-4.6-8-7.2-.8-2.6.4-5 1.9-7.7 1-1.8.8-4.2-.7-6.4-2.6-3.9-9.4-7.9-20.2-6.6-9.9 1.2-11.2-.7-12.9-3.4-.9-1.3-1.8-2.9-3.8-4.2-6.2-4.2-14-2.7-18.5 3.7-1.6 2.2-5 3-8.3 3.6-4 .8-8.1 1.7-9.7 5.3-3.1-1-12.3-3.5-16.1 2-1.8 2.7-2.5 4.9-3 6.9-.7 2.5-1.2 4.3-3.9 6.3-6 4.3-7.6 12.7-3.4 18.9.4.6.6 1.2.5 1.5-.3.9-2.2 1.8-4 2.6-3.5 1.6-7.8 3.5-8.5 8.3-.7 4.8 1.6 7.9 4.1 11.2 2.2 2.9 4.5 5.9 5.3 10.7 1.2 6.7-1 10-3.3 13.6-1.2 1.9-2.5 3.8-3.2 6.2-2.2 7.1 7.4 10.9 15.8 14.3.9.3 1.7.7 2.5 1 1.7.7 2.7 1.7 3.2 3.2 1.3 4.1-2.4 9.9-2.4 10l-2.2 3.5 3.6-2.1c.7-.4 15.9-9.6 12.3-20.2-1.5-4.4-3.2-6.8-4.5-8.6-1.6-2.3-2.2-3.1-1.1-6 .9-2.3 3-3.5 5.3-4.7 2.8-1.5 6-3.2 6-7.5 0-3.9-1.4-5.3-2.6-6.5-1.1-1.1-2.1-2.2-2.4-5.4-.3-3.8.3-4.9 1.3-6.5.9-1.5 2-3.3 2.7-7.3.7-3.7-.7-6.2-1.9-8.7-1.2-2.2-2.2-4.3-2.1-7.3.1-3 2.4-6 5.9-7.6 1.4-.7 2.8-1 4.2-1-1.4.6-2.6 1.6-3.4 3.2-.7 1.3-.8 2.8-.5 4.2.7 2.7 5.4 6.1 2.7 9-.5.6.3 1.5.9.9 1.3-1.5 1.4-3.2.7-5-.8-1.8-2.6-3.2-3.1-5.2-.9-4.1 2.6-6.2 6.1-6.4.4.2.8.4 1.2.7l.9.7.6-1s.1-.3.4-.7c3.2-3.9 7.8-7.7 12.8-8.6 6.5-1.1 10.1 4.8 8.3 10.6-.8 2.5-2.3 4.6-3.1 7-.8 2.3-1 5.3.8 7.3 2 2.2 11 .9 10.4 4.6-.1.8 1.1 1.1 1.2.3.2-1.8 0-2.9-1.6-4-1.8-1.2-4.1.1-5.9-.6-1.8-.3-3.9-.3-4.3-4.5.3-2 .9-4 2-5.7.5-1.1 1.1-2.1 1.5-3.3.9-2.6 1.3-5.5.3-8.1-3.3-8.8-12.4-5-18.7-.1 2.8-3.3 7-6.9 12.1-7.8 6-1.1 11.5.1 14.1 3.1 1.4 1.6 1.8 3.7 1 5.9-1 3.1-4.1 13.6-.2 18.5 1.5 1.9 3.8 2.7 6.9 2.5 4.5-.4 8.7.8 12 3.3 2.9 2.3 4.8 5.4 5 8.6.4 4.5-1.9 8.4-4.1 12.2-2.3 3.9-4.6 8-4 12.5.8 5.5 4.9 6.2 8.5 6.8 2.7.4 5.4.9 7.3 3.1.6.7.9 1.3.8 1.8-.2 1.3-2.5 2.7-4.7 4-2.9 1.8-6.3 3.7-6.9 6.8s.9 6.6 4 9.6c3 2.9 6.7 4.4 9.4 3.7l2.4-.6-2.1-1.2c-.8-.4-2.9-2-3.2-3.6-.1-.6.1-1.2.6-1.7 1.1-1.2 3.6-1.8 6.3-2.4 4.1-.9 8.8-2 11.8-5.8 2.6-4.2 3.8-9.1 2.9-14.2zM140 33.1c1.1 1.6 1.3 3.2.7 4.3-1.3 2.2-3.2 5.6-2.1 9.3 1 3.1 3.9 5.8 9.1 8.4 8.9 4.3 15.2 10.2 16.8 15.5.8 2.6.4 5.1-1 7.4-1.4 2.4-3.3 4.6-5.1 6.7-.2.2-.4.4-.5.7.7-1.2 1.3-2.3 1.7-3.5 1.1-3.3 1.1-7 .1-10.4-2-7-7.9-12.1-14.6-14.5-5.5-2-14.4-2.1-13.2-10.3.5-3.6 3.3-5.7 2.7-9.7-.9-5.7-5.7-8.5-10.8-9.7 8.7-.6 14.1 2.6 16.2 5.8zm-108.2 44c.5-3.7 4.2-5.3 7.4-6.7 2.5-1.1 4.6-2.1 5.1-3.9.3-1 0-2-.8-3.2-3.6-5.2-2.3-12.5 2.9-16.1.3-.2.6-.5.9-.7-1 2-1.6 4.2-1.9 6.6-1 9.3 5.8 19.7-1.8 27.5-2 2.1-4.9 3.8-6.1 6.6-.2.6-.4 1.2-.5 1.7l-1.5-2.1c-2.5-3.2-4.4-5.7-3.7-9.7zm129.9 47c-2.6 3.2-6.9 4.2-10.7 5.1-3.1.7-5.8 1.3-7.4 3-.9 1-1.3 2.2-1.1 3.4.2 1.1.8 2.2 1.6 3-1.5-.5-3.2-1.5-4.7-3-2.6-2.5-3.9-5.5-3.4-7.8.5-2.2 3.4-3.9 6-5.4 2.7-1.6 5.3-3.2 5.7-5.4.2-1.1-.2-2.3-1.3-3.4-2.4-2.7-5.6-3.2-8.5-3.7-3.6-.6-6.3-1.1-6.9-5.1-.6-3.8 1.5-7.4 3.7-11.2 2.4-4.1 4.9-8.3 4.4-13.4-.3-3.8-2.5-7.4-5.8-10-3.6-2.8-8.4-4.1-13.4-3.7-2.3.2-4-.3-5.1-1.7-2.6-3.3-1.4-10.8.5-16.6 1-2.9.5-5.7-1.4-7.9-3-3.5-9.3-4.9-16-3.7C89 38 82.8 47 81 49.9c-2.8-1.5-6.4-1.5-9.9.1-4.1 2-6.8 5.6-7 9.3-.2 3.6 1.2 6.1 2.3 8.3 1.2 2.4 2.3 4.4 1.7 7.4-.7 3.6-1.6 5.2-2.5 6.6-1.1 1.8-2 3.3-1.6 7.7.3 4 1.7 5.4 3 6.7 1.1 1.2 2 2.1 2 5.1 0 3-1.9 4.1-5 5.8-2.4 1.3-5.1 2.7-6.2 5.8-1.4 3.9-.3 5.5 1.4 7.8 1.2 1.7 2.8 3.9 4.2 8.1 2.2 6.4-4.2 12.5-8.3 15.7.7-1.8 1.3-4 1.2-6.1v-.2c-.1-3.4-2-5.6-4.7-7.6-2.3-1.7-5.2-2.9-6.9-5.2-3.1-4.5-.4-7.6 2.3-11 2-2.5 4.2-5.1 4.1-8.5 0-6.3-6.6-11-5-17.4 1.1-4.6 5.9-6.1 7.9-10.1 2-4.2.1-8.8-1.5-12.9-2.7-6.7-2.6-13.3 3-18.6 5.8-5.4 14.1-5.7 21.5-4 .8.2 1.1-1 .3-1.2-9.7-2.2-21.3-.6-26.3 9.1-2.3 4.5-2 8.9-.3 13.5 1.5 3.9 3.6 7.7 2.7 12.1-.7 3.6-4.6 5.4-6.7 8-2.7 3.3-2.6 6.7-1.1 10.6 1.7 4.3 5 7.8 3.8 12.7-.8 3.2-3 5.2-5 7.8-2 2.7-3.5 5.7-1.9 8.9 1.7 3.6 5.7 5.2 8.8 7.5l-2.4-.9c-7.7-3-16.4-6.5-14.7-11.8.7-2.2 1.8-3.9 3-5.8 2.4-3.7 4.9-7.6 3.6-15-.5-2.9-1.5-5.2-2.7-7.2-.6-4.1 1.9-5.8 4.3-8 1.6-1.5 3.2-2.9 4.2-4.8 2.3-4.3 1.6-9.4.8-14-1.4-7.7-2-14.8 3.3-21.1s13.8-8.1 21.5-5.4c.8.3 1.1-.9.3-1.2-8.2-2.9-17-.5-22.3 5.3.2-.7.4-1.3.6-2 .5-1.9 1.1-3.9 2.7-6.3 1.3-2 3.8-2.6 6.2-2.6 4.1 0 8.4 1.7 8.5 1.7l1.1.4.3-1.1c.9-3.3 4.4-4 8.5-4.9l1.5-.3c-.2.2-.4.3-.6.5-2.2 2.1-3.6 5-4.6 7.8-.3.8.9 1.1 1.2.3 1.3-3.7 3.2-7.1 6.8-9 1.4-.8 2.9-1.5 4-2.5l1.2-1.2c3.9-5.4 10.6-6.8 15.8-3.2 1.7 1.1 2.5 2.4 3.3 3.7.6.9 1.2 1.7 1.9 2.4-12.6-1-29.2-1.1-30.3 13.5-.1.8 1.2.8 1.2 0 1.1-14.4 19-13.2 31.2-12.1 1.6.7 3.8 1 7.1.8h.2c6.3.2 15.5 2.6 15.3 10.7-.1 3.8-3.5 6.8-3.1 10.6.6 5.8 7.2 7 11.6 8.2 10 2.6 19.5 11.4 16.9 22.7-.9 4.2-4.7 8-5.5 12.1-.4 1.1-.6 2.2-.4 3.2.3 1.8 1.5 3.3 3.8 4.7 4.2 2.6 7.2 7 8.1 11.9.8 4.5-.3 8.9-3 12.3zm-18.8-29.3c3.5-6.8 9.1-12.4 7.6-20.8-1-5.5-5-9.1-10.1-10.9-4.2-1.5-8.7-1-12.8-2.4-7.9-2.7-4.2-9.5-4.2-15.1-.1-5.9-3.9-11.2-8.9-14-11.7-6.7-27.9.8-34.2 11.8-.4.6.7 1.3 1.1.6 7.4-12.9 30.4-20.5 39.1-4.6 2.3 4.2 1.3 8.1.7 12.5-.2 1.8-.4 3.7.3 5.4 1.9 4.4 7 5 11.2 5.6 9.5 1.2 18.8 6 16.4 17.4-1.4 6.5-7 10.7-8.6 17-1 4 1 7.3 4.1 9.7 2.1 1.7 4.5 2.8 6.6 4.4 2.6 2 3.7 3.3 3.7 6.7 0 3.8-1.4 5.1-4.5 7.2-.7.4 0 1.5.6 1.1 4.1-2.7 7.6-6.7 5-11.7-3.9-7.5-18.9-8.7-13.1-19.9zM79.6 45.9c-7.3-3.2-16.4-1.2-20.5 6.1-1.8 3.2-2.5 7-1.9 10.7.4 2.5 1.5 4.3 2.6 6.5 2.7 5.4 1 9.2-1.9 13.9-2.2 3.5-4.8 7.8-2.9 12 .8 1.7 2.3 2.7 3.4 4.1 5 6.5-.4 7.7-3.2 11-2.1 2.5-3 6.1-2.3 9.3 1.2 5.6 7.7 8.3 7.6 14.3 0 .8 1.2.8 1.2 0 0-3.3-1.5-5.5-3.5-7.9-4.4-5.3-6.2-11.3-.3-16.4 1.9-1.7 4.2-2.8 4.2-5.7.1-3.8-4.1-6.3-5.5-9.4-2.6-6.3 3.3-10.6 5.4-16 1.4-3.7.6-6.4-1.1-9.9-2.8-5.8-3.8-11.4 0-17 4-5.8 11.7-7.3 18-4.5.8.3 1.4-.8.7-1.1z" fill="#000000" stroke-width="none" opacity="1"></path></g><g id="svga-group-glasses-single-move" transform="matrix(1,0,0,1,0,0)"><g id="svga-group-glasses-single"></g></g></g></g></g><rect id="svga-credit-rect" width="200" height="15" x="0" y="185" fill="#ecf0f1" opacity="0.5" style="display: none;"></rect><text id="svga-credit-text" font-family="Avenir Next, Roboto, Helvetica, Arial, sans-serif" font-size="10px" text-anchor="start" font-weight="400" size="10px" anchor="start" weight="400" fill="#333333" x="32.3828125" y="182.6015625" style="display: none;"><tspan id="SvgjsTspan14604" dy="13" x="32.3828125">Created on AvatarMaker.com</tspan></text></g><defs id="SvgjsDefs14556"></defs></svg>